<svg xmlns="http://www.w3.org/2000/svg" xmlns:xlink="http://www.w3.org/1999/xlink" width="230" height="230" viewBox="0 0 230 230">
    <defs>
        <filter id="h6ya2apgza" width="125%" height="115.2%" x="-12.5%" y="-5.2%" filterUnits="objectBoundingBox">
            <feMorphology in="SourceAlpha" radius="1" result="shadowSpreadOuter1"/>
            <feOffset dy="4" in="shadowSpreadOuter1" result="shadowOffsetOuter1"/>
            <feGaussianBlur in="shadowOffsetOuter1" result="shadowBlurOuter1" stdDeviation="4.5"/>
            <feColorMatrix in="shadowBlurOuter1" values="0 0 0 0 0 0 0 0 0 0 0 0 0 0 0 0 0 0 0.2 0"/>
        </filter>
        <filter id="eb0zg897xd" width="136.4%" height="117.1%" x="-18.2%" y="-6.3%" filterUnits="objectBoundingBox">
            <feMorphology in="SourceAlpha" operator="dilate" radius="1.967" result="shadowSpreadOuter1"/>
            <feOffset dy="4" in="shadowSpreadOuter1" result="shadowOffsetOuter1"/>
            <feGaussianBlur in="shadowOffsetOuter1" result="shadowBlurOuter1" stdDeviation="4.5"/>
            <feComposite in="shadowBlurOuter1" in2="SourceAlpha" operator="out" result="shadowBlurOuter1"/>
            <feColorMatrix in="shadowBlurOuter1" values="0 0 0 0 0 0 0 0 0 0 0 0 0 0 0 0 0 0 0.2 0"/>
        </filter>
        <rect id="302f7spbgc" width="84.875" height="180.918" x="0" y="0" rx="9.518"/>
        <path id="6lffnibv8b" d="M0 0H100V164H0z"/>
    </defs>
    <g fill="none" fill-rule="evenodd">
        <g>
            <g transform="translate(-65 -239) translate(65 239)">
                <circle cx="115" cy="115" r="115" fill="#D1D9E9"/>
                <g>
                    <g transform="translate(28 13)">
                        <use fill="#000" filter="url(#h6ya2apgza)" xlink:href="#6lffnibv8b"/>
                        <use fill="#FFF" xlink:href="#6lffnibv8b"/>
                    </g>
                    <g>
                        <path fill="#D1D9E9" d="M25 0H47V7H25z" transform="translate(28 13) translate(14 13)"/>
                        <path stroke="#D1D9E9" stroke-width="1.117" d="M0.558 18.558H70.441V130.441H0.558z" transform="translate(28 13) translate(14 13)"/>
                        <path fill="#D1D9E9" d="M0 18H71V19H0zM0 29H71V30H0zM4 23H20V26H4zM4 34H31V37H4zM4 45H20V48H4zM4 56H20V59H4zM4 67H20V70H4zM4 78H42V81H4zM4 90H42V93H4zM28 56H62V59H28zM25 23H41V26H25zM45 23H61V26H45zM45 34H61V37H45zM0 40H71V41H0zM0 52H71V53H0zM0 63H71V64H0zM0 74H71V75H0zM0 85H71V86H0zM0 96H71V97H0zM0 107H71V130H0z" transform="translate(28 13) translate(14 13)"/>
                    </g>
                </g>
                <g>
                    <g>
                        <g transform="translate(108 32) translate(.59 .386) translate(0 .893)">
                            <mask id="zyngnzue3e" fill="#fff">
                                <use xlink:href="#302f7spbgc"/>
                            </mask>
                            <g>
                                <use fill="#000" filter="url(#eb0zg897xd)" xlink:href="#302f7spbgc"/>
                                <rect width="87.842" height="183.885" x="-1.484" y="-1.484" fill="#F1F6FF" stroke="#007AFF" stroke-width="2.967" rx="9.518"/>
                            </g>
                            <path fill="#D1D9E9" d="M31.27 7.817H53.605000000000004V14.518H31.27z" mask="url(#zyngnzue3e)"/>
                            <path stroke="#D1D9E9" stroke-width="1.117" d="M7.259 26.468H77.616V138.145H7.259z" mask="url(#zyngnzue3e)"/>
                            <path fill="#D1D9E9" d="M6.701 25.91H78.175V27.027H6.701zM6.701 37.078H78.175V38.195H6.701zM11.168 30.377H26.802999999999997V33.727H11.168zM11.168 41.545H37.971000000000004V44.895H11.168zM11.168 52.712H26.802999999999997V56.062000000000005H11.168zM11.168 63.88H26.802999999999997V67.23H11.168zM11.168 75.048H26.802999999999997V78.398H11.168zM11.168 86.216H49.138V89.56599999999999H11.168zM11.168 97.383H49.138V100.73299999999999H11.168zM34.62 63.88H68.12299999999999V67.23H34.62zM31.27 30.377H46.905V33.727H31.27zM51.372 30.377H67.007V33.727H51.372zM51.372 41.545H67.007V44.895H51.372zM6.701 48.245H78.175V49.361999999999995H6.701zM6.701 59.413H78.175V60.529999999999994H6.701zM6.701 70.581H78.175V71.69800000000001H6.701zM6.701 81.749H78.175V82.866H6.701zM6.701 92.916H78.175V94.033H6.701zM6.701 104.084H78.175V105.20100000000001H6.701zM6.701 115.252H78.175V138.704H6.701z" mask="url(#zyngnzue3e)"/>
                            <g mask="url(#zyngnzue3e)">
                                <g transform="translate(-1.117 148.755)">
                                    <path fill="#131923" fill-opacity=".9" d="M0 0H87.108V32.386H0z"/>
                                    <g transform="translate(35.737 7.817)">
                                        <circle cx="7.817" cy="7.817" r="7.538" fill="#282F39" stroke="#FFF" stroke-opacity=".3" stroke-width=".558"/>
                                        <circle cx="7.817" cy="7.817" r="5.584" fill="#FF3D3D"/>
                                    </g>
                                    <rect width="11.168" height="11.168" x="7.817" y="11.168" fill="#D8D8D8" rx="1.936"/>
                                </g>
                            </g>
                        </g>
                    </g>
                </g>
            </g>
        </g>
    </g>
</svg>
